<svg xmlns="http://www.w3.org/2000/svg" version="1.1" xmlns:xlink="http://www.w3.org/1999/xlink" xmlns:svgjs="http://svgjs.dev/svgjs" width="15" height="19"><svg width="15" height="19" viewBox="0 0 15 19" fill="none" xmlns="http://www.w3.org/2000/svg">
<path d="M12.7174 8.57124C13.7359 7.78427 14.4644 6.34112 14.7443 5.33124C15.5815 2.31101 14.0945 0 14.0945 0C13.4746 1.06427 12.8391 1.72989 12.2753 2.23595C11.3938 3.02652 10.5775 3.11551 9.61376 3.69618C8.91957 4.11416 8.5427 5.32809 8.34883 6.32809C8.15235 7.34292 8.38621 8.3564 8.38621 8.3564C8.38621 8.3564 8.0076 7.47056 7.30733 6.64539C6.66225 5.88584 5.73638 5.17933 4.76964 5.21213C2.86398 5.27685 2.71358 5.48854 0.0141872 4.21753C0.0141872 4.21753 -0.270966 6.96315 1.71554 9.13888C2.27629 9.75281 2.99917 10.3663 4.08501 10.7375C5.64161 11.2701 5.90112 11.3784 6.94002 12.5721C7.17692 12.844 8.40969 14.6598 7.57161 17.1034C7.32167 17.8315 6.90133 18.4216 6.24148 18.9811L13.2638 19C13.1151 18.1515 12.9308 17.3236 12.6183 16.422C12.1506 15.0728 10.8487 12.4297 10.8474 12.427C10.6066 11.7987 10.5383 11.0796 10.853 10.3834C11.1434 9.74067 11.5751 9.45438 12.7183 8.57169L12.7174 8.57124Z" fill="#1F9EC4"></path>
</svg><style>@media (prefers-color-scheme: light) { :root { filter: none; } }
@media (prefers-color-scheme: dark) { :root { filter: none; } }
</style></svg>